<svg width="40" height="40" viewBox="0 0 40 40" fill="none" xmlns="http://www.w3.org/2000/svg">
<path d="M27.6857 23.686C31.4286 29.1716 28.5714 34.2859 24.1714 38.5716L18.4572 29.0859" fill="white"/>
<path d="M16.3143 12.3145C10.8286 8.57169 5.7143 11.4288 1.42859 15.8288L10.9143 21.5431" fill="white"/>
<path d="M16.3143 12.3145C10.8286 8.57169 5.7143 11.4288 1.42859 15.8288L10.9143 21.5431" stroke="#08122A" stroke-width="2" stroke-linecap="round" stroke-linejoin="round"/>
<path d="M27.6857 23.686C31.4286 29.1716 28.5714 34.2859 24.1714 38.5716L18.4572 29.0859" stroke="#08122A" stroke-width="2" stroke-linecap="round" stroke-linejoin="round"/>
<path d="M37.4286 2.57142C37.4286 2.57142 41.3715 11.8857 34.5715 18.6857C32.6503 20.6766 29.3309 22.7636 25.657 24.9141L15.0827 14.3398C17.2317 10.6703 19.3262 7.3469 21.3143 5.42856C28.1143 -1.37144 37.4286 2.57142 37.4286 2.57142Z" fill="#000B26" fill-opacity="0.1"/>
<path fill-rule="evenodd" clip-rule="evenodd" d="M18.4859 29.0863L10.9145 21.5148C11.7469 20.1209 12.5763 18.6795 13.3998 17.2484C16.1376 12.4903 18.8105 7.84526 21.3145 5.42912C19.3264 7.34746 17.2319 10.6709 15.0829 14.3403L25.6571 24.9147C24.7484 25.4466 23.8179 25.9824 22.8816 26.5216C21.4105 27.3687 19.9248 28.2243 18.4859 29.0863Z" fill="white"/>
<path d="M10.9143 21.5143L18.4857 29.0858C24.5429 25.4571 31.4286 21.9428 34.5714 18.6857C41.3714 11.8857 37.4286 2.57142 37.4286 2.57142C37.4286 2.57142 28.1143 -1.37144 21.3143 5.42856C18.0572 8.57141 14.5143 15.4857 10.9143 21.5143Z" stroke="#08122A" stroke-width="2" stroke-linecap="round" stroke-linejoin="round"/>
<path d="M15.0858 14.3418L25.6572 24.9132" stroke="#08122A" stroke-width="2" stroke-linecap="round" stroke-linejoin="round"/>
<path d="M30.0001 11.4284C30.7889 11.4284 31.4286 10.7888 31.4286 9.99986C31.4286 9.21089 30.7889 8.57129 30.0001 8.57129C29.2112 8.57129 28.5715 9.21089 28.5715 9.99986C28.5715 10.7888 29.2112 11.4284 30.0001 11.4284Z" stroke="#08122A" stroke-width="2" stroke-linecap="round" stroke-linejoin="round"/>
<path d="M10.5143 35.5431C8.85716 37.1431 1.42859 38.5717 1.42859 38.5717C1.42859 38.5717 2.85716 31.1431 4.45716 29.486C4.8495 29.0651 5.32265 28.7274 5.84836 28.4931C6.37407 28.2588 6.94159 28.1329 7.51702 28.1227C8.09247 28.1126 8.66407 28.2185 9.19773 28.434C9.73136 28.6494 10.2161 28.9703 10.6231 29.3774C11.03 29.7843 11.3509 30.2691 11.5664 30.8029C11.782 31.3363 11.8878 31.908 11.8777 32.4834C11.8675 33.0589 11.7416 33.6263 11.5073 34.152C11.2731 34.6777 10.9354 35.1509 10.5143 35.5431Z" fill="#000B26" fill-opacity="0.1"/>
<path d="M10.5143 35.5431C8.85716 37.1431 1.42859 38.5717 1.42859 38.5717C1.42859 38.5717 2.85716 31.1431 4.45716 29.486C4.8495 29.0651 5.32265 28.7274 5.84836 28.4931C6.37407 28.2588 6.94159 28.1329 7.51702 28.1227C8.09247 28.1126 8.66407 28.2185 9.19773 28.434C9.73136 28.6494 10.2161 28.9703 10.6231 29.3774C11.03 29.7843 11.3509 30.2691 11.5664 30.8029C11.782 31.3363 11.8878 31.908 11.8777 32.4834C11.8675 33.0589 11.7416 33.6263 11.5073 34.152C11.2731 34.6777 10.9354 35.1509 10.5143 35.5431Z" stroke="#08122A" stroke-width="2" stroke-linecap="round" stroke-linejoin="round"/>
</svg>
